# xmcd
#
# Track frame offsets:
#	150
#	15809
#	30721
#	52950
#
# Disc length: 736 seconds
#
# Revision: 1
# Processed by: cddbd v1.5.1PL2 Copyright (c) Steve Scherf et al.
# Submitted via: EasyCDDAExtractor 9.0.0.1
#
DISCID=1f02de04
DTITLE=Garrison - It's Country Time
DYEAR=1999
DGENRE=Country
TTITLE0=It's Country Time
TTITLE1=L. A.*
TTITLE2=Tears On The Ground
TTITLE3=It's Country Time A capella jingle radio mix)
EXTD=
EXTT0=
EXTT1=
EXTT2=
EXTT3=
PLAYORDER=
